<mxfile host="app.diagrams.net" modified="2022-11-01T18:34:17.140Z" agent="5.0 (Windows)" etag="C0TvrJTeUxT4hbUAe1-R" version="20.5.1" type="github">
  <diagram id="-XKuVn8wxQAQQDasz0yF" name="Página-1">
    <mxGraphModel dx="2889" dy="1112" grid="1" gridSize="10" guides="1" tooltips="1" connect="1" arrows="1" fold="1" page="1" pageScale="1" pageWidth="827" pageHeight="1169" math="0" shadow="0">
      <root>
        <mxCell id="0" />
        <mxCell id="1" parent="0" />
        <mxCell id="W7O47I2UpaikeaTK4WXI-1" value="Camionero" style="whiteSpace=wrap;html=1;align=center;fillColor=#d5e8d4;strokeColor=#82b366;strokeWidth=2;" parent="1" vertex="1">
          <mxGeometry x="80" y="120" width="90" height="40" as="geometry" />
        </mxCell>
        <mxCell id="W7O47I2UpaikeaTK4WXI-2" value="Paquete" style="whiteSpace=wrap;html=1;align=center;fillColor=#d5e8d4;strokeColor=#82b366;strokeWidth=2;" parent="1" vertex="1">
          <mxGeometry x="400" y="120" width="90" height="40" as="geometry" />
        </mxCell>
        <mxCell id="W7O47I2UpaikeaTK4WXI-4" style="edgeStyle=orthogonalEdgeStyle;rounded=0;orthogonalLoop=1;jettySize=auto;html=1;exitX=0;exitY=0.5;exitDx=0;exitDy=0;entryX=1;entryY=0.5;entryDx=0;entryDy=0;endArrow=none;endFill=0;" parent="1" source="W7O47I2UpaikeaTK4WXI-3" target="W7O47I2UpaikeaTK4WXI-1" edge="1">
          <mxGeometry relative="1" as="geometry" />
        </mxCell>
        <mxCell id="W7O47I2UpaikeaTK4WXI-5" style="edgeStyle=orthogonalEdgeStyle;rounded=0;orthogonalLoop=1;jettySize=auto;html=1;exitX=1;exitY=0.5;exitDx=0;exitDy=0;entryX=0;entryY=0.5;entryDx=0;entryDy=0;endArrow=none;endFill=0;" parent="1" source="W7O47I2UpaikeaTK4WXI-3" target="W7O47I2UpaikeaTK4WXI-2" edge="1">
          <mxGeometry relative="1" as="geometry" />
        </mxCell>
        <mxCell id="W7O47I2UpaikeaTK4WXI-3" value="Distribuir" style="shape=rhombus;perimeter=rhombusPerimeter;whiteSpace=wrap;html=1;align=center;strokeWidth=2;fillColor=#fff2cc;strokeColor=#d6b656;" parent="1" vertex="1">
          <mxGeometry x="240" y="110" width="90" height="60" as="geometry" />
        </mxCell>
        <mxCell id="W7O47I2UpaikeaTK4WXI-6" value="Camionero" style="whiteSpace=wrap;html=1;align=center;fillColor=#d5e8d4;strokeColor=#82b366;strokeWidth=2;" parent="1" vertex="1">
          <mxGeometry x="80" y="240" width="90" height="40" as="geometry" />
        </mxCell>
        <mxCell id="W7O47I2UpaikeaTK4WXI-7" value="Camión" style="whiteSpace=wrap;html=1;align=center;fillColor=#d5e8d4;strokeColor=#82b366;strokeWidth=2;" parent="1" vertex="1">
          <mxGeometry x="400" y="240" width="90" height="40" as="geometry" />
        </mxCell>
        <mxCell id="W7O47I2UpaikeaTK4WXI-8" style="edgeStyle=orthogonalEdgeStyle;rounded=0;orthogonalLoop=1;jettySize=auto;html=1;exitX=0;exitY=0.5;exitDx=0;exitDy=0;entryX=1;entryY=0.5;entryDx=0;entryDy=0;endArrow=none;endFill=0;" parent="1" source="W7O47I2UpaikeaTK4WXI-10" target="W7O47I2UpaikeaTK4WXI-6" edge="1">
          <mxGeometry relative="1" as="geometry" />
        </mxCell>
        <mxCell id="W7O47I2UpaikeaTK4WXI-9" style="edgeStyle=orthogonalEdgeStyle;rounded=0;orthogonalLoop=1;jettySize=auto;html=1;exitX=1;exitY=0.5;exitDx=0;exitDy=0;entryX=0;entryY=0.5;entryDx=0;entryDy=0;endArrow=none;endFill=0;" parent="1" source="W7O47I2UpaikeaTK4WXI-10" target="W7O47I2UpaikeaTK4WXI-7" edge="1">
          <mxGeometry relative="1" as="geometry" />
        </mxCell>
        <mxCell id="W7O47I2UpaikeaTK4WXI-10" value="Conducir" style="shape=rhombus;perimeter=rhombusPerimeter;whiteSpace=wrap;html=1;align=center;strokeWidth=2;fillColor=#fff2cc;strokeColor=#d6b656;" parent="1" vertex="1">
          <mxGeometry x="240" y="230" width="90" height="60" as="geometry" />
        </mxCell>
        <mxCell id="W7O47I2UpaikeaTK4WXI-11" value="Paquete" style="whiteSpace=wrap;html=1;align=center;fillColor=#d5e8d4;strokeColor=#82b366;strokeWidth=2;" parent="1" vertex="1">
          <mxGeometry x="80" y="440" width="90" height="40" as="geometry" />
        </mxCell>
        <mxCell id="W7O47I2UpaikeaTK4WXI-12" value="Camionero" style="whiteSpace=wrap;html=1;align=center;fillColor=#d5e8d4;strokeColor=#82b366;strokeWidth=2;" parent="1" vertex="1">
          <mxGeometry x="400" y="440" width="90" height="40" as="geometry" />
        </mxCell>
        <mxCell id="W7O47I2UpaikeaTK4WXI-13" style="edgeStyle=orthogonalEdgeStyle;rounded=0;orthogonalLoop=1;jettySize=auto;html=1;exitX=0;exitY=0.5;exitDx=0;exitDy=0;entryX=1;entryY=0.5;entryDx=0;entryDy=0;endArrow=none;endFill=0;" parent="1" source="W7O47I2UpaikeaTK4WXI-15" target="W7O47I2UpaikeaTK4WXI-11" edge="1">
          <mxGeometry relative="1" as="geometry" />
        </mxCell>
        <mxCell id="W7O47I2UpaikeaTK4WXI-14" style="edgeStyle=orthogonalEdgeStyle;rounded=0;orthogonalLoop=1;jettySize=auto;html=1;exitX=1;exitY=0.5;exitDx=0;exitDy=0;entryX=0;entryY=0.5;entryDx=0;entryDy=0;endArrow=none;endFill=0;" parent="1" source="W7O47I2UpaikeaTK4WXI-15" target="W7O47I2UpaikeaTK4WXI-12" edge="1">
          <mxGeometry relative="1" as="geometry" />
        </mxCell>
        <mxCell id="W7O47I2UpaikeaTK4WXI-15" value="Distribuir" style="shape=rhombus;perimeter=rhombusPerimeter;whiteSpace=wrap;html=1;align=center;strokeWidth=2;fillColor=#fff2cc;strokeColor=#d6b656;" parent="1" vertex="1">
          <mxGeometry x="240" y="430" width="90" height="60" as="geometry" />
        </mxCell>
        <mxCell id="W7O47I2UpaikeaTK4WXI-16" value="Camión" style="whiteSpace=wrap;html=1;align=center;fillColor=#d5e8d4;strokeColor=#82b366;strokeWidth=2;" parent="1" vertex="1">
          <mxGeometry x="720" y="440" width="90" height="40" as="geometry" />
        </mxCell>
        <mxCell id="W7O47I2UpaikeaTK4WXI-17" style="edgeStyle=orthogonalEdgeStyle;rounded=0;orthogonalLoop=1;jettySize=auto;html=1;exitX=1;exitY=0.5;exitDx=0;exitDy=0;entryX=0;entryY=0.5;entryDx=0;entryDy=0;endArrow=none;endFill=0;" parent="1" source="W7O47I2UpaikeaTK4WXI-18" target="W7O47I2UpaikeaTK4WXI-16" edge="1">
          <mxGeometry relative="1" as="geometry" />
        </mxCell>
        <mxCell id="W7O47I2UpaikeaTK4WXI-19" style="edgeStyle=orthogonalEdgeStyle;rounded=0;orthogonalLoop=1;jettySize=auto;html=1;exitX=0;exitY=0.5;exitDx=0;exitDy=0;entryX=1;entryY=0.5;entryDx=0;entryDy=0;endArrow=none;endFill=0;" parent="1" source="W7O47I2UpaikeaTK4WXI-18" target="W7O47I2UpaikeaTK4WXI-12" edge="1">
          <mxGeometry relative="1" as="geometry" />
        </mxCell>
        <mxCell id="W7O47I2UpaikeaTK4WXI-18" value="Conducir" style="shape=rhombus;perimeter=rhombusPerimeter;whiteSpace=wrap;html=1;align=center;strokeWidth=2;fillColor=#fff2cc;strokeColor=#d6b656;" parent="1" vertex="1">
          <mxGeometry x="560" y="430" width="90" height="60" as="geometry" />
        </mxCell>
        <mxCell id="W7O47I2UpaikeaTK4WXI-69" style="edgeStyle=orthogonalEdgeStyle;rounded=0;orthogonalLoop=1;jettySize=auto;html=1;exitX=0;exitY=1;exitDx=0;exitDy=0;entryX=1;entryY=0.5;entryDx=0;entryDy=0;endArrow=none;endFill=0;" parent="1" source="W7O47I2UpaikeaTK4WXI-20" target="W7O47I2UpaikeaTK4WXI-65" edge="1">
          <mxGeometry relative="1" as="geometry" />
        </mxCell>
        <mxCell id="W7O47I2UpaikeaTK4WXI-70" style="edgeStyle=orthogonalEdgeStyle;rounded=0;orthogonalLoop=1;jettySize=auto;html=1;exitX=0;exitY=0.5;exitDx=0;exitDy=0;entryX=1;entryY=0.5;entryDx=0;entryDy=0;endArrow=none;endFill=0;" parent="1" source="W7O47I2UpaikeaTK4WXI-20" target="W7O47I2UpaikeaTK4WXI-66" edge="1">
          <mxGeometry relative="1" as="geometry" />
        </mxCell>
        <mxCell id="W7O47I2UpaikeaTK4WXI-71" style="edgeStyle=orthogonalEdgeStyle;rounded=0;orthogonalLoop=1;jettySize=auto;html=1;exitX=0;exitY=0;exitDx=0;exitDy=0;entryX=1;entryY=0.5;entryDx=0;entryDy=0;endArrow=none;endFill=0;" parent="1" source="W7O47I2UpaikeaTK4WXI-20" target="W7O47I2UpaikeaTK4WXI-67" edge="1">
          <mxGeometry relative="1" as="geometry" />
        </mxCell>
        <mxCell id="EpX7aEq_GS1WNeSvcHuL-1" style="edgeStyle=orthogonalEdgeStyle;rounded=0;orthogonalLoop=1;jettySize=auto;html=1;exitX=0.5;exitY=0;exitDx=0;exitDy=0;entryX=0.5;entryY=1;entryDx=0;entryDy=0;endArrow=none;endFill=0;" edge="1" parent="1" source="W7O47I2UpaikeaTK4WXI-20" target="W7O47I2UpaikeaTK4WXI-64">
          <mxGeometry relative="1" as="geometry" />
        </mxCell>
        <mxCell id="W7O47I2UpaikeaTK4WXI-20" value="Paquete" style="whiteSpace=wrap;html=1;align=center;fillColor=#d5e8d4;strokeColor=#82b366;strokeWidth=2;" parent="1" vertex="1">
          <mxGeometry x="80" y="680" width="90" height="40" as="geometry" />
        </mxCell>
        <mxCell id="W7O47I2UpaikeaTK4WXI-58" style="edgeStyle=orthogonalEdgeStyle;rounded=0;orthogonalLoop=1;jettySize=auto;html=1;exitX=1;exitY=1;exitDx=0;exitDy=0;entryX=0.086;entryY=0.429;entryDx=0;entryDy=0;entryPerimeter=0;endArrow=none;endFill=0;" parent="1" source="W7O47I2UpaikeaTK4WXI-21" target="W7O47I2UpaikeaTK4WXI-55" edge="1">
          <mxGeometry relative="1" as="geometry" />
        </mxCell>
        <mxCell id="W7O47I2UpaikeaTK4WXI-59" style="edgeStyle=orthogonalEdgeStyle;rounded=0;orthogonalLoop=1;jettySize=auto;html=1;exitX=0.75;exitY=1;exitDx=0;exitDy=0;entryX=0;entryY=0;entryDx=0;entryDy=0;endArrow=none;endFill=0;" parent="1" source="W7O47I2UpaikeaTK4WXI-21" target="W7O47I2UpaikeaTK4WXI-56" edge="1">
          <mxGeometry relative="1" as="geometry" />
        </mxCell>
        <mxCell id="W7O47I2UpaikeaTK4WXI-60" style="edgeStyle=orthogonalEdgeStyle;rounded=0;orthogonalLoop=1;jettySize=auto;html=1;exitX=0.5;exitY=1;exitDx=0;exitDy=0;endArrow=none;endFill=0;" parent="1" source="W7O47I2UpaikeaTK4WXI-21" target="W7O47I2UpaikeaTK4WXI-54" edge="1">
          <mxGeometry relative="1" as="geometry" />
        </mxCell>
        <mxCell id="W7O47I2UpaikeaTK4WXI-62" style="edgeStyle=orthogonalEdgeStyle;rounded=0;orthogonalLoop=1;jettySize=auto;html=1;exitX=0;exitY=1;exitDx=0;exitDy=0;entryX=1;entryY=0;entryDx=0;entryDy=0;endArrow=none;endFill=0;" parent="1" source="W7O47I2UpaikeaTK4WXI-21" target="W7O47I2UpaikeaTK4WXI-52" edge="1">
          <mxGeometry relative="1" as="geometry" />
        </mxCell>
        <mxCell id="W7O47I2UpaikeaTK4WXI-21" value="Camionero" style="whiteSpace=wrap;html=1;align=center;fillColor=#d5e8d4;strokeColor=#82b366;strokeWidth=2;" parent="1" vertex="1">
          <mxGeometry x="400" y="680" width="90" height="40" as="geometry" />
        </mxCell>
        <mxCell id="W7O47I2UpaikeaTK4WXI-22" style="edgeStyle=orthogonalEdgeStyle;rounded=0;orthogonalLoop=1;jettySize=auto;html=1;exitX=0;exitY=0.5;exitDx=0;exitDy=0;entryX=1;entryY=0.5;entryDx=0;entryDy=0;endArrow=classic;endFill=1;" parent="1" source="W7O47I2UpaikeaTK4WXI-24" target="W7O47I2UpaikeaTK4WXI-20" edge="1">
          <mxGeometry relative="1" as="geometry" />
        </mxCell>
        <mxCell id="W7O47I2UpaikeaTK4WXI-30" value="(N,M)" style="edgeLabel;html=1;align=center;verticalAlign=middle;resizable=0;points=[];" parent="W7O47I2UpaikeaTK4WXI-22" vertex="1" connectable="0">
          <mxGeometry x="-0.0681" relative="1" as="geometry">
            <mxPoint x="-3" as="offset" />
          </mxGeometry>
        </mxCell>
        <mxCell id="W7O47I2UpaikeaTK4WXI-23" style="edgeStyle=orthogonalEdgeStyle;rounded=0;orthogonalLoop=1;jettySize=auto;html=1;exitX=1;exitY=0.5;exitDx=0;exitDy=0;entryX=0;entryY=0.5;entryDx=0;entryDy=0;endArrow=none;endFill=0;" parent="1" source="W7O47I2UpaikeaTK4WXI-24" target="W7O47I2UpaikeaTK4WXI-21" edge="1">
          <mxGeometry relative="1" as="geometry" />
        </mxCell>
        <mxCell id="W7O47I2UpaikeaTK4WXI-29" value="(1,1)" style="edgeLabel;html=1;align=center;verticalAlign=middle;resizable=0;points=[];" parent="W7O47I2UpaikeaTK4WXI-23" vertex="1" connectable="0">
          <mxGeometry x="0.0877" y="-1" relative="1" as="geometry">
            <mxPoint x="-3" as="offset" />
          </mxGeometry>
        </mxCell>
        <mxCell id="W7O47I2UpaikeaTK4WXI-24" value="Distribuir" style="shape=rhombus;perimeter=rhombusPerimeter;whiteSpace=wrap;html=1;align=center;strokeWidth=2;fillColor=#fff2cc;strokeColor=#d6b656;" parent="1" vertex="1">
          <mxGeometry x="240" y="670" width="90" height="60" as="geometry" />
        </mxCell>
        <mxCell id="W7O47I2UpaikeaTK4WXI-77" style="edgeStyle=orthogonalEdgeStyle;rounded=0;orthogonalLoop=1;jettySize=auto;html=1;exitX=1;exitY=1;exitDx=0;exitDy=0;entryX=0;entryY=0.5;entryDx=0;entryDy=0;endArrow=none;endFill=0;" parent="1" source="W7O47I2UpaikeaTK4WXI-25" target="W7O47I2UpaikeaTK4WXI-73" edge="1">
          <mxGeometry relative="1" as="geometry" />
        </mxCell>
        <mxCell id="W7O47I2UpaikeaTK4WXI-78" style="edgeStyle=orthogonalEdgeStyle;rounded=0;orthogonalLoop=1;jettySize=auto;html=1;exitX=1;exitY=0.75;exitDx=0;exitDy=0;entryX=0;entryY=0.5;entryDx=0;entryDy=0;endArrow=none;endFill=0;" parent="1" source="W7O47I2UpaikeaTK4WXI-25" target="W7O47I2UpaikeaTK4WXI-75" edge="1">
          <mxGeometry relative="1" as="geometry" />
        </mxCell>
        <mxCell id="W7O47I2UpaikeaTK4WXI-79" style="edgeStyle=orthogonalEdgeStyle;rounded=0;orthogonalLoop=1;jettySize=auto;html=1;exitX=1;exitY=0.25;exitDx=0;exitDy=0;entryX=0;entryY=0.5;entryDx=0;entryDy=0;endArrow=none;endFill=0;" parent="1" source="W7O47I2UpaikeaTK4WXI-25" target="W7O47I2UpaikeaTK4WXI-76" edge="1">
          <mxGeometry relative="1" as="geometry" />
        </mxCell>
        <mxCell id="W7O47I2UpaikeaTK4WXI-80" style="edgeStyle=orthogonalEdgeStyle;rounded=0;orthogonalLoop=1;jettySize=auto;html=1;exitX=1;exitY=0;exitDx=0;exitDy=0;entryX=0;entryY=0.5;entryDx=0;entryDy=0;endArrow=none;endFill=0;" parent="1" source="W7O47I2UpaikeaTK4WXI-25" target="W7O47I2UpaikeaTK4WXI-74" edge="1">
          <mxGeometry relative="1" as="geometry" />
        </mxCell>
        <mxCell id="W7O47I2UpaikeaTK4WXI-25" value="Camión" style="whiteSpace=wrap;html=1;align=center;fillColor=#d5e8d4;strokeColor=#82b366;strokeWidth=2;" parent="1" vertex="1">
          <mxGeometry x="720" y="680" width="90" height="40" as="geometry" />
        </mxCell>
        <mxCell id="W7O47I2UpaikeaTK4WXI-26" style="edgeStyle=orthogonalEdgeStyle;rounded=0;orthogonalLoop=1;jettySize=auto;html=1;exitX=1;exitY=0.5;exitDx=0;exitDy=0;entryX=0;entryY=0.5;entryDx=0;entryDy=0;endArrow=none;endFill=0;" parent="1" source="W7O47I2UpaikeaTK4WXI-28" target="W7O47I2UpaikeaTK4WXI-25" edge="1">
          <mxGeometry relative="1" as="geometry" />
        </mxCell>
        <mxCell id="W7O47I2UpaikeaTK4WXI-32" value="(1,1)" style="edgeLabel;html=1;align=center;verticalAlign=middle;resizable=0;points=[];" parent="W7O47I2UpaikeaTK4WXI-26" vertex="1" connectable="0">
          <mxGeometry x="0.0462" y="-1" relative="1" as="geometry">
            <mxPoint as="offset" />
          </mxGeometry>
        </mxCell>
        <mxCell id="W7O47I2UpaikeaTK4WXI-27" style="edgeStyle=orthogonalEdgeStyle;rounded=0;orthogonalLoop=1;jettySize=auto;html=1;exitX=0;exitY=0.5;exitDx=0;exitDy=0;entryX=1;entryY=0.5;entryDx=0;entryDy=0;endArrow=none;endFill=0;" parent="1" source="W7O47I2UpaikeaTK4WXI-28" target="W7O47I2UpaikeaTK4WXI-21" edge="1">
          <mxGeometry relative="1" as="geometry" />
        </mxCell>
        <mxCell id="W7O47I2UpaikeaTK4WXI-33" value="(1,1)" style="edgeLabel;html=1;align=center;verticalAlign=middle;resizable=0;points=[];" parent="W7O47I2UpaikeaTK4WXI-27" vertex="1" connectable="0">
          <mxGeometry x="-0.0857" y="1" relative="1" as="geometry">
            <mxPoint x="-3" y="-1" as="offset" />
          </mxGeometry>
        </mxCell>
        <mxCell id="W7O47I2UpaikeaTK4WXI-28" value="Conducir" style="shape=rhombus;perimeter=rhombusPerimeter;whiteSpace=wrap;html=1;align=center;strokeWidth=2;fillColor=#fff2cc;strokeColor=#d6b656;" parent="1" vertex="1">
          <mxGeometry x="560" y="670" width="90" height="60" as="geometry" />
        </mxCell>
        <mxCell id="W7O47I2UpaikeaTK4WXI-36" value="&lt;div&gt;1:1&lt;/div&gt;" style="text;html=1;align=center;verticalAlign=middle;resizable=0;points=[];autosize=1;strokeColor=none;fillColor=none;" parent="1" vertex="1">
          <mxGeometry x="584" y="645" width="40" height="30" as="geometry" />
        </mxCell>
        <mxCell id="W7O47I2UpaikeaTK4WXI-37" value="1:N" style="text;html=1;align=center;verticalAlign=middle;resizable=0;points=[];autosize=1;strokeColor=none;fillColor=none;" parent="1" vertex="1">
          <mxGeometry x="265" y="645" width="40" height="30" as="geometry" />
        </mxCell>
        <mxCell id="W7O47I2UpaikeaTK4WXI-63" style="edgeStyle=orthogonalEdgeStyle;rounded=0;orthogonalLoop=1;jettySize=auto;html=1;exitX=1;exitY=0;exitDx=0;exitDy=0;entryX=0;entryY=0.75;entryDx=0;entryDy=0;endArrow=none;endFill=0;" parent="1" source="W7O47I2UpaikeaTK4WXI-39" target="W7O47I2UpaikeaTK4WXI-21" edge="1">
          <mxGeometry relative="1" as="geometry" />
        </mxCell>
        <mxCell id="W7O47I2UpaikeaTK4WXI-39" value="DNI" style="ellipse;whiteSpace=wrap;html=1;align=center;fontStyle=4;strokeWidth=2;fillColor=#FFFFFF;strokeColor=#000000;" parent="1" vertex="1">
          <mxGeometry x="305" y="750" width="70" height="30" as="geometry" />
        </mxCell>
        <mxCell id="W7O47I2UpaikeaTK4WXI-52" value="Nombre" style="ellipse;whiteSpace=wrap;html=1;align=center;strokeColor=#000000;strokeWidth=2;fillColor=#FFFFFF;" parent="1" vertex="1">
          <mxGeometry x="330" y="800" width="70" height="35" as="geometry" />
        </mxCell>
        <mxCell id="W7O47I2UpaikeaTK4WXI-54" value="Teléfono" style="ellipse;whiteSpace=wrap;html=1;align=center;strokeColor=#000000;strokeWidth=2;fillColor=#FFFFFF;" parent="1" vertex="1">
          <mxGeometry x="470" y="840" width="70" height="35" as="geometry" />
        </mxCell>
        <mxCell id="W7O47I2UpaikeaTK4WXI-55" value="Dirección" style="ellipse;whiteSpace=wrap;html=1;align=center;strokeColor=#000000;strokeWidth=2;fillColor=#FFFFFF;" parent="1" vertex="1">
          <mxGeometry x="554" y="745" width="70" height="35" as="geometry" />
        </mxCell>
        <mxCell id="W7O47I2UpaikeaTK4WXI-56" value="Población" style="ellipse;whiteSpace=wrap;html=1;align=center;strokeColor=#000000;strokeWidth=2;fillColor=#FFFFFF;" parent="1" vertex="1">
          <mxGeometry x="540" y="800" width="70" height="35" as="geometry" />
        </mxCell>
        <mxCell id="W7O47I2UpaikeaTK4WXI-61" style="edgeStyle=orthogonalEdgeStyle;rounded=0;orthogonalLoop=1;jettySize=auto;html=1;exitX=0.5;exitY=0;exitDx=0;exitDy=0;entryX=0.25;entryY=1;entryDx=0;entryDy=0;endArrow=none;endFill=0;" parent="1" source="W7O47I2UpaikeaTK4WXI-57" target="W7O47I2UpaikeaTK4WXI-21" edge="1">
          <mxGeometry relative="1" as="geometry" />
        </mxCell>
        <mxCell id="W7O47I2UpaikeaTK4WXI-57" value="Salario" style="ellipse;whiteSpace=wrap;html=1;align=center;strokeColor=#000000;strokeWidth=2;fillColor=#FFFFFF;" parent="1" vertex="1">
          <mxGeometry x="388" y="840" width="70" height="35" as="geometry" />
        </mxCell>
        <mxCell id="W7O47I2UpaikeaTK4WXI-64" value="Dirección" style="ellipse;whiteSpace=wrap;html=1;align=center;strokeColor=#000000;strokeWidth=2;fillColor=#FFFFFF;" parent="1" vertex="1">
          <mxGeometry x="100" y="600" width="70" height="35" as="geometry" />
        </mxCell>
        <mxCell id="W7O47I2UpaikeaTK4WXI-65" value="Descripción" style="ellipse;whiteSpace=wrap;html=1;align=center;strokeColor=#000000;strokeWidth=2;fillColor=#FFFFFF;" parent="1" vertex="1">
          <mxGeometry x="-10" y="745" width="70" height="35" as="geometry" />
        </mxCell>
        <mxCell id="W7O47I2UpaikeaTK4WXI-66" value="Código" style="ellipse;whiteSpace=wrap;html=1;align=center;strokeColor=#000000;strokeWidth=2;fillColor=#FFFFFF;fontStyle=4" parent="1" vertex="1">
          <mxGeometry x="-50" y="682.5" width="70" height="35" as="geometry" />
        </mxCell>
        <mxCell id="W7O47I2UpaikeaTK4WXI-67" value="Destinatario" style="ellipse;whiteSpace=wrap;html=1;align=center;strokeColor=#000000;strokeWidth=2;fillColor=#FFFFFF;" parent="1" vertex="1">
          <mxGeometry x="-10" y="610" width="70" height="35" as="geometry" />
        </mxCell>
        <mxCell id="W7O47I2UpaikeaTK4WXI-73" value="&lt;u&gt;Matrícula&lt;/u&gt;" style="ellipse;whiteSpace=wrap;html=1;align=center;strokeColor=#000000;strokeWidth=2;fillColor=#FFFFFF;" parent="1" vertex="1">
          <mxGeometry x="830" y="780" width="70" height="35" as="geometry" />
        </mxCell>
        <mxCell id="W7O47I2UpaikeaTK4WXI-74" value="Tipo" style="ellipse;whiteSpace=wrap;html=1;align=center;strokeColor=#000000;strokeWidth=2;fillColor=#FFFFFF;" parent="1" vertex="1">
          <mxGeometry x="830" y="610" width="70" height="35" as="geometry" />
        </mxCell>
        <mxCell id="W7O47I2UpaikeaTK4WXI-75" value="Potencia" style="ellipse;whiteSpace=wrap;html=1;align=center;strokeColor=#000000;strokeWidth=2;fillColor=#FFFFFF;" parent="1" vertex="1">
          <mxGeometry x="900" y="730" width="70" height="35" as="geometry" />
        </mxCell>
        <mxCell id="W7O47I2UpaikeaTK4WXI-76" value="Modelo" style="ellipse;whiteSpace=wrap;html=1;align=center;strokeColor=#000000;strokeWidth=2;fillColor=#FFFFFF;" parent="1" vertex="1">
          <mxGeometry x="900" y="672" width="70" height="35" as="geometry" />
        </mxCell>
      </root>
    </mxGraphModel>
  </diagram>
</mxfile>
